<svg width="121" height="20" viewBox="0 0 121 20" fill="none" xmlns="http://www.w3.org/2000/svg">
<path fill-rule="evenodd" clip-rule="evenodd" d="M16.6325 1.80697C16.841 1.59855 17.1239 1.48146 17.4188 1.48146C17.7138 1.48146 17.9966 1.59855 18.2052 1.80697C18.4138 2.01539 18.5309 2.29806 18.5309 2.59281C18.5309 2.88755 18.4138 3.17022 18.2052 3.37864L17.0616 4.52151L15.4892 2.95018L16.6325 1.80697ZM14.4411 3.99785L16.0133 5.56906L7.71041 13.8664C7.27503 14.3012 6.73799 14.6208 6.14807 14.7963L4.80781 15.1954L5.20719 13.8559C5.38282 13.2664 5.70278 12.7297 6.13784 12.2946L14.4411 3.99785ZM17.4188 0C16.7307 0 16.0706 0.273325 15.5841 0.75957L5.08928 11.2473C4.4801 11.8565 4.03229 12.6078 3.78637 13.4332L2.99577 16.0848C2.91805 16.3455 2.98955 16.6278 3.18201 16.8201C3.37447 17.0125 3.65694 17.0839 3.91779 17.0062L6.57138 16.2161C7.39731 15.9704 8.14913 15.5227 8.75867 14.914L19.2535 4.4262C19.74 3.93995 20.0134 3.28046 20.0134 2.59281C20.0134 1.90515 19.74 1.24566 19.2535 0.759415C18.7669 0.27317 18.107 0 17.4188 0ZM1.91666 5.61928C2.19467 5.34145 2.57174 5.18537 2.96491 5.18537H7.65935C8.06872 5.18537 8.40057 4.85373 8.40057 4.44463C8.40057 4.03554 8.06872 3.7039 7.65935 3.7039H2.96491C2.17857 3.7039 1.42443 4.01607 0.868402 4.57172C0.312373 5.12738 0 5.88101 0 6.66683V17.0371C0 17.8229 0.312373 18.5765 0.868402 19.1322C1.42443 19.6878 2.17857 20 2.96491 20H13.3421C14.1284 20 14.8826 19.6878 15.4386 19.1322C15.9946 18.5765 16.307 17.8229 16.307 17.0371V12.3458C16.307 11.9367 15.9751 11.605 15.5658 11.605C15.1564 11.605 14.8245 11.9367 14.8245 12.3458V17.0371C14.8245 17.43 14.6684 17.8068 14.3903 18.0846C14.1123 18.3625 13.7353 18.5185 13.3421 18.5185H2.96491C2.57174 18.5185 2.19467 18.3625 1.91666 18.0846C1.63864 17.8068 1.48245 17.43 1.48245 17.0371V6.66683C1.48245 6.27392 1.63864 5.8971 1.91666 5.61928ZM33.9627 18.6311C34.9114 19.2 35.9788 19.4845 37.1648 19.4845C38.2559 19.4845 39.2362 19.2395 40.106 18.7496C40.8186 18.3427 41.3879 17.8027 41.8137 17.1296V18.3111C41.8137 18.802 42.212 19.2 42.7032 19.2C43.1945 19.2 43.5927 18.802 43.5927 18.3111V2.1454C43.5927 1.65449 43.1945 1.25652 42.7032 1.25652C42.212 1.25652 41.8137 1.65449 41.8137 2.1454V8.41953C41.3584 7.80904 40.7813 7.30974 40.0822 6.92164C39.2283 6.44757 38.2559 6.21054 37.1648 6.21054C35.963 6.21054 34.8877 6.50288 33.9389 7.08756C33.006 7.65645 32.2628 8.43866 31.7093 9.4342C31.1717 10.4297 30.9029 11.5675 30.9029 12.8475C30.9029 14.1117 31.1717 15.2494 31.7093 16.2608C32.2628 17.2563 33.0139 18.0464 33.9627 18.6311ZM39.5604 17.0667C38.8805 17.4934 38.1135 17.7067 37.2596 17.7067C36.4057 17.7067 35.6388 17.4934 34.9589 17.0667C34.2947 16.64 33.765 16.0633 33.3697 15.3364C32.9902 14.5936 32.8004 13.764 32.8004 12.8475C32.8004 11.9152 32.9902 11.0855 33.3697 10.3586C33.765 9.63173 34.3026 9.05495 34.9826 8.62829C35.6625 8.20163 36.4216 7.98829 37.2596 7.98829C38.1135 7.98829 38.8805 8.20163 39.5604 8.62829C40.2562 9.05495 40.8017 9.63963 41.197 10.3823C41.6082 11.1092 41.8137 11.931 41.8137 12.8475C41.8137 13.764 41.6082 14.5936 41.197 15.3364C40.8017 16.0633 40.2562 16.64 39.5604 17.0667ZM51.2242 19.4845C50.0382 19.4845 48.9629 19.2 47.9984 18.6311C47.0496 18.0464 46.2985 17.2484 45.745 16.2371C45.1916 15.2257 44.9149 14.0801 44.9149 12.8001C44.9149 11.5201 45.1837 10.3902 45.7213 9.4105C46.2589 8.41496 46.9863 7.63274 47.9035 7.06386C48.8364 6.49498 49.8801 6.21054 51.0344 6.21054C51.9516 6.21054 52.7659 6.38436 53.4775 6.73201C54.2049 7.06386 54.8216 7.52213 55.3276 8.10681C55.8336 8.67569 56.221 9.32359 56.4899 10.0505C56.7587 10.7616 56.8931 11.4964 56.8931 12.2549C56.8931 12.4129 56.8852 12.5947 56.8694 12.8001C56.8536 12.9897 56.8298 13.1872 56.7982 13.3927H46.7931C46.8028 14.1705 46.9674 14.8658 47.2868 15.4786C47.6979 16.2213 48.2514 16.7981 48.9471 17.2089C49.6587 17.6198 50.4177 17.8252 51.2242 17.8252C52.1571 17.8252 52.9399 17.604 53.5724 17.1615C54.2049 16.7191 54.7188 16.166 55.1141 15.5023L56.6322 16.3082C56.3792 16.8771 55.9918 17.4065 55.4699 17.8963C54.9481 18.3704 54.3235 18.7575 53.5961 19.0578C52.8845 19.3422 52.0939 19.4845 51.2242 19.4845ZM47.2631 10.2164C47.0276 10.6674 46.8804 11.173 46.8215 11.7334H54.9863C54.9895 11.1472 54.866 10.6099 54.616 10.1216C54.284 9.4263 53.8017 8.88112 53.1692 8.48607C52.5367 8.07521 51.8251 7.86978 51.0344 7.86978C50.2438 7.86978 49.5085 8.07521 48.8285 8.48607C48.1644 8.89693 47.6426 9.47371 47.2631 10.2164ZM60.2486 19.0341C60.8811 19.3343 61.6006 19.4845 62.4071 19.4845C63.1503 19.4845 63.8302 19.3738 64.4469 19.1526C65.0795 18.9156 65.625 18.6074 66.0836 18.2282C66.4012 17.9637 66.6621 17.6814 66.8663 17.3815V18.3111C66.8663 18.802 67.2645 19.2 67.7558 19.2C68.247 19.2 68.6453 18.802 68.6453 18.3111V10.4772C68.6453 9.63963 68.4397 8.90483 68.0285 8.27274C67.6332 7.62484 67.0719 7.11917 66.3445 6.75572C65.6329 6.39226 64.8106 6.21054 63.8777 6.21054C63.1661 6.21054 62.4782 6.34486 61.8141 6.6135C61.15 6.86633 60.557 7.21398 60.0352 7.65645C59.7689 7.88924 59.5399 8.13515 59.3481 8.39418C59.0624 8.78004 59.245 9.30256 59.6669 9.53199C60.1358 9.78699 60.7152 9.5799 61.0649 9.17673C61.284 8.92405 61.5417 8.70173 61.8378 8.50977C62.4229 8.11471 63.1028 7.91718 63.8777 7.91718C64.7632 7.91718 65.4827 8.15422 66.0361 8.62829C66.5896 9.10236 66.8663 9.71865 66.8663 10.4772V11.1329L62.2648 11.8994C61.3318 12.0574 60.5649 12.326 59.964 12.7053C59.3631 13.0845 58.9203 13.5507 58.6357 14.1038C58.3511 14.6411 58.2088 15.2415 58.2088 15.9052C58.2088 16.6005 58.3906 17.2168 58.7543 17.7541C59.118 18.2914 59.6161 18.718 60.2486 19.0341ZM62.6917 13.4401L66.8663 12.7448V13.7008C66.8663 14.4751 66.6845 15.1783 66.3208 15.8104C65.9571 16.4425 65.4511 16.9482 64.8027 17.3274C64.1544 17.6909 63.3954 17.8726 62.5257 17.8726C61.8141 17.8726 61.229 17.6751 60.7705 17.28C60.3277 16.885 60.1063 16.403 60.1063 15.8341C60.1063 15.2494 60.304 14.7438 60.6993 14.3171C61.1104 13.8904 61.7746 13.5981 62.6917 13.4401ZM82.7953 18.7311L73.3954 5.16726V18.2519C73.3954 18.7755 72.9706 19.2 72.4466 19.2C71.9226 19.2 71.4979 18.7755 71.4979 18.2519V2.63117C71.4979 2.02907 71.9863 1.54096 72.5888 1.54096C72.9456 1.54096 73.2798 1.7153 73.4838 2.0078L82.8831 15.4848V2.4891C82.8831 1.96546 83.3079 1.54096 83.8319 1.54096C84.3559 1.54096 84.7807 1.96546 84.7807 2.4891V18.1112C84.7807 18.7125 84.2928 19.2 83.6911 19.2C83.3336 19.2 82.9989 19.0248 82.7953 18.7311ZM90.315 18.6311C91.2954 19.2 92.3865 19.4845 93.5883 19.4845C94.7743 19.4845 95.8495 19.2 96.8141 18.6311C97.7945 18.0622 98.5772 17.28 99.1623 16.2845C99.7474 15.2731 100.04 14.1196 100.04 12.8238C100.04 11.5438 99.7553 10.406 99.1861 9.4105C98.6326 8.41496 97.8657 7.63274 96.8853 7.06386C95.9207 6.49498 94.8217 6.21054 93.5883 6.21054C92.3549 6.21054 91.248 6.50288 90.2676 7.08756C89.303 7.65645 88.5361 8.43866 87.9668 9.4342C87.3976 10.4297 87.1129 11.5596 87.1129 12.8238C87.1129 14.1038 87.3976 15.2494 87.9668 16.2608C88.5519 17.2563 89.3346 18.0464 90.315 18.6311ZM95.8891 17.0667C95.2091 17.4934 94.4422 17.7067 93.5883 17.7067C92.7344 17.7067 91.9596 17.4934 91.2638 17.0667C90.5839 16.64 90.0383 16.0554 89.6272 15.3126C89.216 14.5699 89.0105 13.7403 89.0105 12.8238C89.0105 11.9073 89.216 11.0855 89.6272 10.3586C90.0383 9.63173 90.5839 9.05495 91.2638 8.62829C91.9596 8.20163 92.7344 7.98829 93.5883 7.98829C94.4422 7.98829 95.2091 8.20163 95.8891 8.62829C96.5848 9.05495 97.1304 9.63173 97.5257 10.3586C97.9368 11.0855 98.1424 11.9073 98.1424 12.8238C98.1424 13.7403 97.9368 14.5699 97.5257 15.3126C97.1304 16.0554 96.5848 16.64 95.8891 17.0667ZM106.741 19.3422C105.602 19.3422 104.725 19.0104 104.108 18.3467C103.491 17.683 103.183 16.7349 103.183 15.5023V8.27274H101.724C101.233 8.27274 100.835 7.87477 100.835 7.38386V7.08757C100.835 6.76029 101.1 6.49498 101.428 6.49498C101.965 6.49498 102.392 6.32115 102.709 5.9735C103.025 5.61005 103.183 5.15969 103.183 4.62241V4.44463C103.183 3.95372 103.581 3.55576 104.072 3.55576C104.564 3.55576 104.962 3.95372 104.962 4.44463V6.49498H106.871C107.363 6.49498 107.761 6.89294 107.761 7.38386C107.761 7.87477 107.363 8.27274 106.871 8.27274H104.962V15.5023C104.962 15.9289 105.025 16.3082 105.152 16.64C105.278 16.9561 105.492 17.2089 105.792 17.3986C106.108 17.5882 106.527 17.683 107.049 17.683C107.176 17.683 107.326 17.6751 107.5 17.6593C107.739 17.6375 107.951 17.8243 107.951 18.0648V18.5522C107.951 18.9329 107.69 19.2695 107.31 19.2948C107.073 19.3264 106.883 19.3422 106.741 19.3422ZM112.105 18.6311C113.07 19.2 114.145 19.4845 115.331 19.4845C116.201 19.4845 116.991 19.3422 117.703 19.0578C118.43 18.7575 119.055 18.3704 119.577 17.8963C119.866 17.625 120.114 17.3416 120.32 17.046C120.594 16.6537 120.411 16.1341 119.988 15.9096C119.559 15.6815 119.032 15.8373 118.72 16.2102C118.419 16.5699 118.072 16.887 117.679 17.1615C117.047 17.604 116.264 17.8252 115.331 17.8252C114.525 17.8252 113.766 17.6198 113.054 17.2089C112.358 16.7981 111.805 16.2213 111.394 15.4786C111.074 14.8658 110.91 14.1705 110.9 13.3927H120.905C120.937 13.1872 120.96 12.9897 120.976 12.8001C120.992 12.5947 121 12.4129 121 12.2549C121 11.4964 120.866 10.7616 120.597 10.0505C120.328 9.32359 119.941 8.67569 119.435 8.10681C118.929 7.52213 118.312 7.06386 117.584 6.73201C116.873 6.38436 116.058 6.21054 115.141 6.21054C113.987 6.21054 112.943 6.49498 112.01 7.06386C111.093 7.63274 110.366 8.41496 109.828 9.4105C109.291 10.3902 109.022 11.5201 109.022 12.8001C109.022 14.0801 109.298 15.2257 109.852 16.2371C110.405 17.2484 111.156 18.0464 112.105 18.6311ZM110.928 11.7334C110.987 11.173 111.135 10.6674 111.37 10.2164C111.749 9.47371 112.271 8.89693 112.935 8.48607C113.615 8.07521 114.351 7.86978 115.141 7.86978C115.932 7.86978 116.644 8.07521 117.276 8.48607C117.909 8.88112 118.391 9.4263 118.723 10.1216C118.973 10.6099 119.096 11.1472 119.093 11.7334H110.928ZM27.4254 2.4891C27.4254 1.96546 27.8502 1.54096 28.3742 1.54096C28.8982 1.54096 29.3229 1.96546 29.3229 2.4891V18.2519C29.3229 18.7755 28.8982 19.2 28.3742 19.2C27.8502 19.2 27.4254 18.7755 27.4254 18.2519V2.4891Z" fill="#2563EB"/>
</svg>
